<?xml version="1.0" encoding="utf-8"?>
<!-- Generator: Adobe Illustrator 22.1.0, SVG Export Plug-In . SVG Version: 6.00 Build 0)  -->
<svg version="1.1" id="Layer_1" xmlns="http://www.w3.org/2000/svg" xmlns:xlink="http://www.w3.org/1999/xlink" x="0px" y="0px"
	 viewBox="0 0 117.2 46.3" style="enable-background:new 0 0 117.2 46.3;" xml:space="preserve">
<style type="text/css">
	.st0{fill:#005DAB;}
</style>
<g>
	<g>
		<rect x="39.9" y="2.8" class="st0" width="0.4" height="40.6"/>
	</g>
	<g>
		<g>
			<path class="st0" d="M6.8,18.3l-5.3-2.4V9.5l12.2,5.6l3.3-1.5c0.2-0.1,0.4-0.3,0.4-0.5c0-0.2-0.2-0.4-0.4-0.6l-11-5L15.7,3
				c0.2-0.1,0.5-0.2,0.8-0.2c0.3,0,0.6,0.1,0.8,0.2l14.7,6.7c0.7,0.3,1.5,0.7,1.5,1.6c0,0.9-0.8,1.3-1.5,1.6l-11.6,5.3l11.6,5.3
				c0.7,0.3,1.5,0.7,1.5,1.6c0,0.9-0.8,1.3-1.5,1.6l-14.7,6.7c-0.2,0.1-0.5,0.2-0.8,0.2c-0.3,0-0.6-0.1-0.8-0.2L5.9,29l11-5
				c0.2-0.1,0.4-0.3,0.4-0.6c0-0.2-0.2-0.4-0.4-0.5l-3.3-1.5L1.5,27v-6.3L6.8,18.3z"/>
		</g>
		<path class="st0" d="M1.5,43.5v-4.9h4.3c0.9,0,2.3,0.1,2.3,1.3c0,0.6-0.5,1-1.1,1.1C7.7,41.2,8,41.6,8,42.1c0,1.2-1.3,1.3-2.3,1.3
			H1.5z M3.1,41.4l0.4-0.8c0.1-0.2,0.3-0.3,0.5-0.3h0.9v0h0.9c0.3,0,0.6-0.1,0.6-0.4c0-0.2-0.2-0.4-0.6-0.4H3.1V41.4z M3.1,41.4v2.1
			l0.4-0.7c0.1-0.2,0.3-0.3,0.5-0.3h1.7c0.3,0,0.6-0.2,0.6-0.5c0-0.3-0.2-0.5-0.6-0.5H3.1z M11.8,39.7l-2.1,3.7H7.9l2.9-4.9h1h1
			l2.9,4.9h-1.8l-0.5-0.9h-2.7l0.5-0.8c0.1-0.2,0.3-0.3,0.5-0.3h1.2L11.8,39.7z M24.6,39.7l-2.1,3.7h-1.8l2.9-4.9h1h1l2.9,4.9h-1.8
			l-0.5-0.9h-2.7l0.5-0.8c0.1-0.2,0.3-0.3,0.5-0.3h1.2L24.6,39.7z M18.6,42.4c0.4,0,0.6-0.2,0.6-0.5v-3.3h1.6V42
			c0,1.1-0.7,1.4-1.6,1.4h-2.6c-0.2,0-0.4-0.1-0.5-0.3l-0.5-0.8H18.6z M31.4,42.4c0.4,0,0.6-0.2,0.6-0.5v-3.3h1.6V42
			c0,1.1-0.7,1.4-1.6,1.4h-2.6c-0.2,0-0.4-0.1-0.5-0.3l-0.5-0.8H31.4z"/>
	</g>
	<g>
		<g>
			<path class="st0" d="M70.8,8.5l-2.2,8.1l-2.3,0.4l-0.7-2.4L65,17.2l-2.3,0.4l-2.2-7.3l2.5-0.4l1,3.5l0.8-3.8l1.8-0.3l0.8,3.6
				l1-3.9L70.8,8.5z"/>
			<path class="st0" d="M74.6,7.6c0.5-0.1,1.1-0.1,1.5,0C76.6,7.8,77,8,77.4,8.3C77.7,8.6,78,9,78.2,9.4c0.2,0.4,0.3,0.9,0.3,1.5
				c0,0.6-0.1,1.1-0.3,1.6c-0.2,0.5-0.5,1-0.8,1.4c-0.4,0.4-0.8,0.8-1.2,1.1c-0.5,0.3-1,0.5-1.5,0.6c-0.5,0.1-1.1,0.1-1.5,0
				c-0.5-0.1-0.9-0.3-1.2-0.6c-0.4-0.3-0.6-0.7-0.8-1.1c-0.2-0.4-0.3-0.9-0.3-1.5c0-0.6,0.1-1.1,0.3-1.6c0.2-0.5,0.5-1,0.8-1.4
				c0.4-0.4,0.8-0.8,1.2-1.1C73.5,7.9,74,7.7,74.6,7.6z M76.3,11.3c0-0.2,0-0.4-0.1-0.6c-0.1-0.2-0.2-0.3-0.3-0.5
				c-0.1-0.1-0.3-0.2-0.5-0.3c-0.2-0.1-0.4-0.1-0.6,0c-0.2,0-0.4,0.1-0.6,0.2c-0.2,0.1-0.4,0.3-0.5,0.4c-0.1,0.2-0.3,0.4-0.4,0.6
				C73,11.4,73,11.7,73,11.9c0,0.2,0,0.4,0.1,0.6c0.1,0.2,0.2,0.3,0.4,0.5c0.1,0.1,0.3,0.2,0.5,0.3c0.2,0.1,0.4,0.1,0.6,0
				c0.2,0,0.4-0.1,0.6-0.2c0.2-0.1,0.4-0.3,0.5-0.5c0.1-0.2,0.3-0.4,0.3-0.6C76.2,11.8,76.3,11.5,76.3,11.3z"/>
			<path class="st0" d="M85.4,13.6L83,14c-0.3-0.4-0.6-0.7-0.8-1c-0.2-0.2-0.4-0.4-0.5-0.5c-0.1-0.1-0.2-0.2-0.3-0.2
				c-0.1,0-0.1,0-0.1,0c0,0,0,0.1,0,0.2c0,0.1,0,0.1,0,0.2v1.7l-2.2,0.4V7L82,6.5c0.3-0.1,0.7,0,1,0.1c0.3,0.1,0.6,0.3,0.8,0.5
				c0.3,0.2,0.5,0.5,0.6,0.9c0.1,0.3,0.2,0.7,0.2,1.1c0,0.4-0.1,0.8-0.2,1.1c-0.1,0.4-0.4,0.8-0.6,1.1L85.4,13.6z M82.5,9.2
				c0-0.2-0.1-0.4-0.2-0.5c-0.1-0.1-0.3-0.2-0.5-0.1l-0.5,0.1v1.5l0.5-0.1c0.2,0,0.4-0.1,0.5-0.3C82.4,9.6,82.5,9.4,82.5,9.2z"/>
			<path class="st0" d="M89.6,10.6v2.2l-3.8,0.7V5.8L88,5.4v5.5L89.6,10.6z"/>
			<path class="st0" d="M92.4,4.6c0.5-0.1,1-0.1,1.5,0c0.5,0.1,0.9,0.3,1.2,0.6c0.3,0.3,0.6,0.6,0.8,1.1c0.2,0.4,0.3,0.9,0.3,1.4
				c0,0.5-0.1,1-0.3,1.5c-0.2,0.5-0.5,1-0.8,1.4c-0.3,0.4-0.7,0.8-1.2,1c-0.5,0.3-0.9,0.5-1.5,0.6l-2.2,0.4V5L92.4,4.6z M92.4,10.1
				c0.2,0,0.4-0.1,0.6-0.2c0.2-0.1,0.4-0.3,0.5-0.4c0.1-0.2,0.3-0.4,0.3-0.6C94,8.6,94,8.4,94,8.2c0-0.2,0-0.4-0.1-0.6
				c-0.1-0.2-0.2-0.3-0.3-0.5C93.4,7,93.2,6.9,93,6.9c-0.2,0-0.4-0.1-0.6,0V10.1z"/>
			<path class="st0" d="M97.9,3.7c0.1,0,0.2,0,0.2,0.1v0.6c0,0.1,0,0.2,0,0.4c0,0.1,0,0.2,0,0.4c0,0.1,0,0.2-0.1,0.3
				c0,0.1-0.1,0.2-0.1,0.3c0,0.1-0.1,0.2-0.2,0.3c-0.1,0.1-0.1,0.2-0.2,0.3c-0.1,0.1-0.1,0.2-0.2,0.3c-0.1,0.1-0.2,0.1-0.2,0.1
				l-0.4,0.1c-0.1,0-0.2,0-0.2,0c0,0,0-0.1,0.1-0.2c0.1-0.2,0.2-0.3,0.2-0.5C96.9,5.9,97,5.7,97,5.6c0,0,0-0.1,0-0.1
				c0,0,0-0.1-0.1,0l-0.3,0c-0.1,0-0.1,0-0.1-0.1V4.1c0-0.1,0.1-0.2,0.2-0.2L97.9,3.7z"/>
			<path class="st0" d="M101.3,3c0.4-0.1,0.7-0.1,1.1-0.1c0.4,0,0.7,0,1.1,0.1c0,0.1,0,0.2,0,0.3c0,0.1,0,0.1,0,0.3
				c0,0.1,0,0.3,0,0.5c0,0.2,0,0.6-0.1,1.1C103.2,5,103,5,102.7,5c-0.3,0-0.6,0-0.8,0c-0.1,0-0.3,0-0.4,0.1c-0.1,0-0.2,0.1-0.3,0.2
				c-0.1,0.1-0.1,0.2,0,0.2c0.1,0.1,0.1,0.1,0.2,0.2l1.2,0.2c0.3,0,0.5,0.1,0.7,0.2c0.2,0.1,0.4,0.2,0.5,0.4
				c0.2,0.2,0.3,0.3,0.4,0.6c0.1,0.2,0.1,0.4,0.1,0.7c0,0.4-0.1,0.7-0.2,1c-0.1,0.3-0.3,0.6-0.5,0.9c-0.2,0.3-0.5,0.5-0.8,0.7
				c-0.3,0.2-0.6,0.3-1,0.4c0,0-0.1,0-0.2,0.1c-0.1,0-0.2,0-0.3,0.1c-0.2,0-0.4,0.1-0.6,0.1c-0.2,0-0.4,0-0.5,0
				c-0.2,0-0.4,0-0.6-0.1c-0.2,0-0.5-0.1-0.8-0.1l0.5-2.4c0.1,0,0.2,0,0.3,0.1c0.1,0,0.2,0,0.3,0.1l0.5,0.1c0.2,0,0.3,0.1,0.5,0.1
				c0.2,0,0.3,0,0.5,0c0.1,0,0.2-0.1,0.3-0.1c0.1-0.1,0.1-0.2,0.1-0.3c0-0.1,0-0.2-0.1-0.2c0-0.1-0.1-0.1-0.2-0.1
				c-0.1,0-0.2-0.1-0.2-0.1c-0.1,0-0.2,0-0.2,0c-0.3,0-0.6-0.1-0.9-0.2c-0.3-0.1-0.5-0.3-0.7-0.5c-0.2-0.2-0.4-0.4-0.5-0.7
				c-0.1-0.3-0.2-0.5-0.2-0.8c0-0.2,0-0.5,0.1-0.7c0.1-0.2,0.2-0.4,0.3-0.6c0.1-0.2,0.3-0.4,0.5-0.6c0.2-0.2,0.5-0.3,0.7-0.4
				C100.7,3.1,101,3.1,101.3,3z"/>
		</g>
		<g>
			<g>
				<path class="st0" d="M53.6,20.7v2.7l-4.1,0.7v1.1l3.3-0.6v2.5l-3.3,0.6v3.6l-2.8,0.5v-10L53.6,20.7z"/>
				<path class="st0" d="M58.9,19.7l3,9.4l-2.8,0.5l-0.3-1.1l-3,0.5l-0.3,1.2l-2.8,0.5l3-10.5L58.9,19.7z M57.9,25.9l-0.6-2.2
					l-0.6,2.4L57.9,25.9z"/>
				<path class="st0" d="M66,18.5l3.1-0.5l-2.6,10.3L63,28.9l-2.6-9.4l3.1-0.5l1.2,4.7L66,18.5z"/>
				<path class="st0" d="M73.9,16.9c0.7-0.1,1.4-0.1,2,0.1c0.6,0.2,1.2,0.4,1.6,0.8c0.5,0.4,0.8,0.9,1.1,1.5
					c0.3,0.6,0.4,1.2,0.4,1.9c0,0.7-0.1,1.4-0.4,2.1c-0.3,0.7-0.6,1.3-1.1,1.8c-0.5,0.5-1,1-1.6,1.4c-0.6,0.4-1.3,0.6-2,0.8
					c-0.7,0.1-1.4,0.1-2-0.1c-0.6-0.2-1.2-0.4-1.6-0.8c-0.5-0.4-0.8-0.9-1.1-1.5c-0.3-0.6-0.4-1.2-0.4-1.9c0-0.7,0.1-1.4,0.4-2.1
					c0.3-0.7,0.6-1.3,1.1-1.8c0.5-0.5,1-1,1.6-1.4C72.5,17.3,73.2,17,73.9,16.9z M76,21.7c0-0.3-0.1-0.6-0.2-0.8
					c-0.1-0.2-0.3-0.4-0.5-0.6c-0.2-0.2-0.4-0.3-0.7-0.3c-0.3-0.1-0.5-0.1-0.8,0c-0.3,0.1-0.6,0.2-0.8,0.3c-0.3,0.2-0.5,0.4-0.7,0.6
					c-0.2,0.2-0.3,0.5-0.5,0.8c-0.1,0.3-0.2,0.6-0.2,0.9c0,0.3,0.1,0.6,0.2,0.8c0.1,0.2,0.3,0.5,0.5,0.6c0.2,0.2,0.4,0.3,0.7,0.3
					c0.3,0.1,0.5,0.1,0.8,0c0.3-0.1,0.6-0.2,0.8-0.3c0.3-0.2,0.5-0.4,0.7-0.6c0.2-0.2,0.3-0.5,0.5-0.8C76,22.3,76,22,76,21.7z"/>
				<path class="st0" d="M87.1,14.8v6.4c0,0.5-0.1,1-0.3,1.5c-0.2,0.5-0.5,0.9-0.8,1.3c-0.3,0.4-0.7,0.7-1.2,1
					c-0.5,0.3-0.9,0.5-1.4,0.5c-0.5,0.1-1,0.1-1.4,0c-0.4-0.1-0.8-0.3-1.2-0.6c-0.3-0.3-0.6-0.6-0.8-1c-0.2-0.4-0.3-0.9-0.3-1.4
					v-6.4l2.8-0.5v6.2c0,0.2,0.1,0.4,0.3,0.6c0.2,0.1,0.4,0.2,0.6,0.1c0.2,0,0.4-0.2,0.6-0.4c0.2-0.2,0.3-0.4,0.3-0.6v-6.2
					L87.1,14.8z"/>
				<path class="st0" d="M96.1,23.1l-3.1,0.5c-0.4-0.5-0.7-1-1-1.3c-0.3-0.3-0.5-0.5-0.6-0.7c-0.2-0.2-0.3-0.2-0.4-0.3
					c-0.1,0-0.1,0-0.2,0c0,0.1,0,0.1,0,0.2c0,0.1,0,0.2,0,0.2v2.1L88,24.6v-10l3.7-0.7c0.4-0.1,0.9,0,1.3,0.1
					c0.4,0.1,0.8,0.3,1.1,0.6c0.4,0.3,0.6,0.7,0.8,1.1c0.2,0.4,0.3,0.9,0.3,1.4c0,0.5-0.1,1-0.3,1.5c-0.2,0.5-0.5,1-0.8,1.4
					L96.1,23.1z M92.4,17.5c0-0.3-0.1-0.5-0.3-0.6c-0.2-0.2-0.4-0.2-0.7-0.2l-0.6,0.1v1.9l0.6-0.1c0.3,0,0.5-0.2,0.7-0.4
					C92.3,18,92.4,17.8,92.4,17.5z"/>
				<path class="st0" d="M96.6,13.1l4.3-0.7v2.6l-0.7,0.1v4.8l0.7-0.1v2.6l-4.3,0.7v-2.6l0.7-0.1v-4.8l-0.7,0.1V13.1z"/>
				<path class="st0" d="M108.4,11v2.9l-1.9,0.3v7.1l-2.8,0.5v-7.1l-2,0.3v-2.9L108.4,11z"/>
				<path class="st0" d="M116,16.8v2.9l-6.8,1.2v-10l6.8-1.2v2.9l-4,0.7v0.9l3.3-0.6V16l-3.3,0.6v0.9L116,16.8z"/>
			</g>
		</g>
		<g>
			<g>
				<path class="st0" d="M55.5,31.8l5-0.9v3L59.6,34v5.7l0.8-0.1v3l-5,0.9v-3l0.8-0.1v-5.7l-0.8,0.1V31.8z"/>
				<path class="st0" d="M70,29.2v11.7l-3.2,0.6l-2.3-3.8v4.2l-3.1,0.5V30.7l3.2-0.6l2,4.2v-4.6L70,29.2z"/>
				<path class="st0" d="M74.4,28.4c0.8-0.1,1.5-0.1,2.2,0.1c0.7,0.2,1.3,0.5,1.8,0.9c0.5,0.4,0.9,1,1.2,1.6
					c0.3,0.7,0.5,1.4,0.5,2.2c0,0.8-0.2,1.6-0.5,2.4c-0.3,0.8-0.7,1.5-1.2,2.1c-0.5,0.6-1.1,1.2-1.8,1.6c-0.7,0.4-1.4,0.7-2.2,0.9
					l-3.3,0.6V29L74.4,28.4z M74.4,36.7c0.3-0.1,0.7-0.2,1-0.4c0.3-0.2,0.6-0.4,0.8-0.7c0.2-0.3,0.4-0.6,0.5-0.9
					c0.1-0.3,0.2-0.7,0.2-1c0-0.3-0.1-0.7-0.2-0.9c-0.1-0.3-0.3-0.5-0.5-0.7c-0.2-0.2-0.5-0.3-0.8-0.4c-0.3-0.1-0.6-0.1-1,0V36.7z"
					/>
				<path class="st0" d="M80.6,27.3l5-0.9v3l-0.8,0.1v5.7l0.8-0.1v3l-5,0.9v-3l0.8-0.1v-5.7l-0.8,0.1V27.3z"/>
				<path class="st0" d="M93.6,25l3.6,11.1l-3.3,0.6l-0.4-1.3L90,36l-0.3,1.4L86.3,38l3.6-12.3L93.6,25z M92.4,32.3l-0.7-2.6
					l-0.7,2.8L92.4,32.3z"/>
				<path class="st0" d="M106.4,22.8v11.7l-3.2,0.6l-2.3-3.8v4.2L97.9,36V24.3l3.2-0.6l2,4.2v-4.6L106.4,22.8z"/>
			</g>
		</g>
		<g>
			<path class="st0" d="M54,15.2v1.1l-0.8,0.1v2.7l-1.1,0.2v-2.7l-0.8,0.1v-1.1L54,15.2z"/>
			<path class="st0" d="M57.4,14.6v3.8l-1.1,0.2v-1.4l-0.6,0.1v1.4l-1.1,0.2v-3.8l1.1-0.2v1.4l0.6-0.1v-1.4L57.4,14.6z"/>
			<path class="st0" d="M60.5,16.8v1.1l-2.6,0.5v-3.8l2.6-0.5v1.1L59,15.4v0.3l1.3-0.2v0.9L59,16.7V17L60.5,16.8z"/>
		</g>
	</g>
</g>
</svg>
